<svg xmlns="http://www.w3.org/2000/svg" width="1440" height="1200" viewBox="0 0 1440 1200" font-family="Georgia, serif">
  <rect width="1440" height="1200" fill="#FAF7F2"/>
  <rect width="1440" height="64" fill="#6B2737"/>
  <text x="48" y="38" fill="#C9A84C" font-size="20" font-weight="700">Vite &amp; Gourmand</text>
  <text x="900" y="37" fill="#FAF7F2" font-size="13" font-family="sans-serif">Accueil</text>
  <text x="980" y="37" fill="#FAF7F2" font-size="13" font-family="sans-serif">Nos menus</text>
  <text x="1080" y="37" fill="#FAF7F2" font-size="13" font-family="sans-serif">Contact</text>
  <rect x="1200" y="18" width="110" height="32" rx="4" fill="#C9A84C"/>
  <text x="1255" y="39" fill="#2C2C2C" font-size="13" font-family="sans-serif" font-weight="600" text-anchor="middle">Se connecter</text>
  <rect y="64" width="1440" height="340" fill="#6B2737"/>
  <text x="80" y="140" fill="#FAF7F2" font-size="40" font-weight="700">La gastronomie à votre service,</text>
  <text x="80" y="190" fill="#C9A84C" font-size="40" font-weight="700">depuis 25 ans</text>
  <text x="80" y="240" fill="#FAF7F2" font-size="15" font-family="sans-serif" opacity="0.85">Vite &amp; Gourmand — Julie et José s'occupent de tout.</text>
  <rect x="80" y="290" width="180" height="44" rx="4" fill="#C9A84C"/>
  <text x="170" y="317" fill="#2C2C2C" font-size="14" font-family="sans-serif" font-weight="600" text-anchor="middle">Découvrir nos menus</text>
  <rect x="278" y="290" width="160" height="44" rx="4" fill="none" stroke="#FAF7F2" stroke-width="1.5"/>
  <text x="358" y="317" fill="#FAF7F2" font-size="14" font-family="sans-serif" text-anchor="middle">Nous contacter</text>
  <rect x="880" y="90" width="460" height="290" rx="8" fill="#7D3045"/>
  <text x="1110" y="240" fill="#FAF7F2" font-size="13" font-family="sans-serif" text-anchor="middle" opacity="0.6">[ Photo hero ]</text>
  <text x="720" y="470" fill="#6B2737" font-size="26" text-anchor="middle">En chiffres</text>
  <rect x="200" y="510" width="200" height="90" rx="8" fill="#fff" stroke="#e0d8d0" stroke-width="0.5"/>
  <text x="300" y="562" fill="#6B2737" font-size="32" font-weight="700" text-anchor="middle">25</text>
  <text x="300" y="584" fill="#888" font-size="12" font-family="sans-serif" text-anchor="middle">Ans d'expérience</text>
  <rect x="440" y="510" width="200" height="90" rx="8" fill="#fff" stroke="#e0d8d0" stroke-width="0.5"/>
  <text x="540" y="562" fill="#6B2737" font-size="32" font-weight="700" text-anchor="middle">4</text>
  <text x="540" y="584" fill="#888" font-size="12" font-family="sans-serif" text-anchor="middle">Menus</text>
  <rect x="680" y="510" width="200" height="90" rx="8" fill="#fff" stroke="#e0d8d0" stroke-width="0.5"/>
  <text x="780" y="562" fill="#6B2737" font-size="32" font-weight="700" text-anchor="middle">500+</text>
  <text x="780" y="584" fill="#888" font-size="12" font-family="sans-serif" text-anchor="middle">Événements</text>
  <rect x="920" y="510" width="200" height="90" rx="8" fill="#fff" stroke="#e0d8d0" stroke-width="0.5"/>
  <text x="1020" y="562" fill="#6B2737" font-size="32" font-weight="700" text-anchor="middle">98%</text>
  <text x="1020" y="584" fill="#888" font-size="12" font-family="sans-serif" text-anchor="middle">Satisfaits</text>
  <text x="720" y="650" fill="#6B2737" font-size="26" text-anchor="middle">Notre équipe</text>
  <rect x="480" y="670" width="200" height="150" rx="8" fill="#fff" stroke="#e0d8d0" stroke-width="0.5"/>
  <circle cx="580" cy="720" r="36" fill="#6B2737"/>
  <text x="580" y="728" fill="#C9A84C" font-size="22" font-weight="700" text-anchor="middle">J</text>
  <text x="580" y="782" fill="#2C2C2C" font-size="15" font-weight="600" font-family="sans-serif" text-anchor="middle">Julie Dupont</text>
  <text x="580" y="800" fill="#888" font-size="12" font-family="sans-serif" text-anchor="middle">Cheffe cuisinière</text>
  <rect x="720" y="670" width="200" height="150" rx="8" fill="#fff" stroke="#e0d8d0" stroke-width="0.5"/>
  <circle cx="820" cy="720" r="36" fill="#6B2737"/>
  <text x="820" y="728" fill="#C9A84C" font-size="22" font-weight="700" text-anchor="middle">J</text>
  <text x="820" y="782" fill="#2C2C2C" font-size="15" font-weight="600" font-family="sans-serif" text-anchor="middle">José Martin</text>
  <text x="820" y="800" fill="#888" font-size="12" font-family="sans-serif" text-anchor="middle">Gérant</text>
  <rect y="860" width="1440" height="220" fill="#fff"/>
  <text x="720" y="900" fill="#6B2737" font-size="26" text-anchor="middle">Avis clients</text>
  <rect x="120" y="920" width="360" height="100" rx="8" fill="#FAF7F2" stroke="#e0d8d0" stroke-width="0.5"/>
  <text x="140" y="944" fill="#C9A84C" font-size="15">★★★★★</text>
  <text x="140" y="968" fill="#444" font-size="12" font-family="sans-serif" font-style="italic">"Prestation exceptionnelle pour notre Noël."</text>
  <text x="140" y="1004" fill="#888" font-size="11" font-family="sans-serif">Thomas D. — Décembre 2024</text>
  <rect x="540" y="920" width="360" height="100" rx="8" fill="#FAF7F2" stroke="#e0d8d0" stroke-width="0.5"/>
  <text x="560" y="944" fill="#C9A84C" font-size="15">★★★★★</text>
  <text x="560" y="968" fill="#444" font-size="12" font-family="sans-serif" font-style="italic">"Julie et José sont des professionnels hors pair."</text>
  <text x="560" y="1004" fill="#888" font-size="11" font-family="sans-serif">Sophie M. — Octobre 2024</text>
  <rect x="960" y="920" width="360" height="100" rx="8" fill="#FAF7F2" stroke="#e0d8d0" stroke-width="0.5"/>
  <text x="980" y="944" fill="#C9A84C" font-size="15">★★★★☆</text>
  <text x="980" y="968" fill="#444" font-size="12" font-family="sans-serif" font-style="italic">"Menu végétarien surprenant et savoureux."</text>
  <text x="980" y="1004" fill="#888" font-size="11" font-family="sans-serif">Marc L. — Septembre 2024</text>
  <rect y="1130" width="1440" height="70" fill="#2C2C2C"/>
  <text x="80" y="1158" fill="#C9A84C" font-size="16" font-weight="700">Vite &amp; Gourmand</text>
  <text x="80" y="1178" fill="#aaa" font-size="12" font-family="sans-serif">12 rue des Saveurs, Bordeaux</text>
  <text x="600" y="1158" fill="#aaa" font-size="12" font-family="sans-serif">Lun–Ven : 09h–18h  |  Sam : 10h–17h  |  Dim : Fermé</text>
  <text x="1100" y="1158" fill="#aaa" font-size="12" font-family="sans-serif">Mentions légales</text>
  <text x="1280" y="1158" fill="#aaa" font-size="12" font-family="sans-serif">CGV</text>
</svg>