<svg xmlns="http://www.w3.org/2000/svg" width="390" height="1500" viewBox="0 0 390 1500" font-family="Georgia, serif">
  <rect width="390" height="1500" fill="#FAF7F2"/>
  <rect width="390" height="56" fill="#6B2737"/>
  <text x="20" y="34" fill="#C9A84C" font-size="16" font-weight="700">Vite &amp; Gourmand</text>
  <rect x="340" y="16" width="32" height="24" rx="3" fill="none" stroke="#FAF7F2" stroke-width="1.5"/>
  <line x1="347" y1="24" x2="365" y2="24" stroke="#FAF7F2" stroke-width="1.5"/>
  <line x1="347" y1="28" x2="365" y2="28" stroke="#FAF7F2" stroke-width="1.5"/>
  <line x1="347" y1="32" x2="365" y2="32" stroke="#FAF7F2" stroke-width="1.5"/>
  <rect x="24" y="72" width="342" height="200" rx="8" fill="#7D3045"/>
  <text x="195" y="177" fill="#FAF7F2" font-size="12" font-family="sans-serif" text-anchor="middle" opacity="0.6">[ Galerie photos ]</text>
  <text x="24" y="300" fill="#6B2737" font-size="22" font-weight="700">Menu Noël Prestige</text>
  <rect x="24" y="314" width="70" height="22" rx="11" fill="#6B2737"/>
  <text x="59" y="329" fill="#FAF7F2" font-size="11" font-family="sans-serif" text-anchor="middle">Noël</text>
  <rect x="104" y="314" width="80" height="22" rx="11" fill="#C9A84C"/>
  <text x="144" y="329" fill="#2C2C2C" font-size="11" font-family="sans-serif" text-anchor="middle">Classique</text>
  <text x="24" y="360" fill="#888" font-size="13" font-family="sans-serif">8 personnes min.   |   320 €</text>
  <text x="24" y="380" fill="#888" font-size="12" font-family="sans-serif">Stock : 5 commandes disponibles</text>
  <line x1="24" y1="400" x2="366" y2="400" stroke="#e0d8d0" stroke-width="0.5"/>
  <text x="24" y="424" fill="#2C2C2C" font-size="13" font-family="sans-serif">Un menu raffiné pour sublimer vos</text>
  <text x="24" y="442" fill="#2C2C2C" font-size="13" font-family="sans-serif">fêtes de fin d'année.</text>
  <text x="24" y="474" fill="#6B2737" font-size="15" font-weight="600">Entrée</text>
  <text x="24" y="494" fill="#2C2C2C" font-size="13" font-family="sans-serif">Foie gras maison</text>
  <text x="24" y="512" fill="#888" font-size="11" font-family="sans-serif">Allergènes : Oeufs, Sulfites</text>
  <text x="24" y="540" fill="#6B2737" font-size="15" font-weight="600">Plat</text>
  <text x="24" y="560" fill="#2C2C2C" font-size="13" font-family="sans-serif">Filet de boeuf en croûte</text>
  <text x="24" y="578" fill="#888" font-size="11" font-family="sans-serif">Allergènes : Gluten, Oeufs</text>
  <text x="24" y="606" fill="#6B2737" font-size="15" font-weight="600">Dessert</text>
  <text x="24" y="626" fill="#2C2C2C" font-size="13" font-family="sans-serif">Bûche de Noël artisanale</text>
  <text x="24" y="644" fill="#888" font-size="11" font-family="sans-serif">Allergènes : Gluten, Oeufs, Lait</text>
  <rect x="24" y="664" width="342" height="90" rx="6" fill="#FAEEDA" stroke="#C9A84C" stroke-width="1"/>
  <text x="44" y="688" fill="#854F0B" font-size="13" font-weight="600" font-family="sans-serif">Conditions importantes</text>
  <text x="44" y="708" fill="#854F0B" font-size="12" font-family="sans-serif">À commander 7 jours avant la prestation.</text>
  <text x="44" y="726" fill="#854F0B" font-size="12" font-family="sans-serif">Livraison : 5€ + 0,59€/km hors Bordeaux.</text>
  <rect x="24" y="774" width="342" height="48" rx="4" fill="#6B2737"/>
  <text x="195" y="803" fill="#FAF7F2" font-size="15" font-family="sans-serif" font-weight="600" text-anchor="middle">Commander ce menu</text>
  <rect y="1440" width="390" height="60" fill="#2C2C2C"/>
  <text x="24" y="1464" fill="#C9A84C" font-size="14" font-weight="700">Vite &amp; Gourmand</text>
  <text x="24" y="1484" fill="#aaa" font-size="11" font-family="sans-serif">Mentions légales  |  CGV</text>
</svg>