<svg xmlns="http://www.w3.org/2000/svg" width="390" height="1600" viewBox="0 0 390 1600" font-family="Georgia, serif">
  <rect width="390" height="1600" fill="#FAF7F2"/>
  <rect width="390" height="56" fill="#6B2737"/>
  <text x="20" y="34" fill="#C9A84C" font-size="16" font-weight="700">Vite &amp; Gourmand</text>
  <rect x="340" y="16" width="32" height="24" rx="3" fill="none" stroke="#FAF7F2" stroke-width="1.5"/>
  <line x1="347" y1="24" x2="365" y2="24" stroke="#FAF7F2" stroke-width="1.5"/>
  <line x1="347" y1="28" x2="365" y2="28" stroke="#FAF7F2" stroke-width="1.5"/>
  <line x1="347" y1="32" x2="365" y2="32" stroke="#FAF7F2" stroke-width="1.5"/>
  <text x="195" y="96" fill="#6B2737" font-size="22" text-anchor="middle">Nos menus</text>
  <rect x="24" y="116" width="342" height="32" rx="4" fill="#FAF7F2" stroke="#e0d8d0" stroke-width="0.5"/>
  <text x="195" y="136" fill="#aaa" font-size="12" font-family="sans-serif" text-anchor="middle">Filtrer par thème, régime, prix...</text>
  <rect x="24" y="164" width="342" height="260" rx="8" fill="#fff" stroke="#e0d8d0" stroke-width="0.5"/>
  <rect x="24" y="164" width="342" height="100" rx="8" fill="#7D3045"/>
  <text x="195" y="219" fill="#FAF7F2" font-size="11" font-family="sans-serif" text-anchor="middle" opacity="0.6">[ Photo menu ]</text>
  <text x="44" y="290" fill="#6B2737" font-size="16" font-weight="700">Menu Noël Prestige</text>
  <text x="44" y="310" fill="#888" font-size="12" font-family="sans-serif">8 personnes min.   |   320 €</text>
  <rect x="44" y="330" width="130" height="36" rx="4" fill="#6B2737"/>
  <text x="109" y="353" fill="#FAF7F2" font-size="13" font-family="sans-serif" text-anchor="middle">Voir le détail</text>
  <rect x="24" y="444" width="342" height="260" rx="8" fill="#fff" stroke="#e0d8d0" stroke-width="0.5"/>
  <rect x="24" y="444" width="342" height="100" rx="8" fill="#7D3045"/>
  <text x="195" y="499" fill="#FAF7F2" font-size="11" font-family="sans-serif" text-anchor="middle" opacity="0.6">[ Photo menu ]</text>
  <text x="44" y="570" fill="#6B2737" font-size="16" font-weight="700">Menu Pâques Gourmand</text>
  <text x="44" y="590" fill="#888" font-size="12" font-family="sans-serif">6 personnes min.   |   180 €</text>
  <rect x="44" y="610" width="130" height="36" rx="4" fill="#6B2737"/>
  <text x="109" y="633" fill="#FAF7F2" font-size="13" font-family="sans-serif" text-anchor="middle">Voir le détail</text>
  <rect x="24" y="724" width="342" height="260" rx="8" fill="#fff" stroke="#e0d8d0" stroke-width="0.5"/>
  <rect x="24" y="724" width="342" height="100" rx="8" fill="#7D3045"/>
  <text x="195" y="779" fill="#FAF7F2" font-size="11" font-family="sans-serif" text-anchor="middle" opacity="0.6">[ Photo menu ]</text>
  <text x="44" y="850" fill="#6B2737" font-size="16" font-weight="700">Menu Classique Affaires</text>
  <text x="44" y="870" fill="#888" font-size="12" font-family="sans-serif">10 personnes min.   |   250 €</text>
  <rect x="44" y="890" width="130" height="36" rx="4" fill="#6B2737"/>
  <text x="109" y="913" fill="#FAF7F2" font-size="13" font-family="sans-serif" text-anchor="middle">Voir le détail</text>
  <rect x="24" y="1004" width="342" height="260" rx="8" fill="#fff" stroke="#e0d8d0" stroke-width="0.5"/>
  <rect x="24" y="1004" width="342" height="100" rx="8" fill="#7D3045"/>
  <text x="195" y="1059" fill="#FAF7F2" font-size="11" font-family="sans-serif" text-anchor="middle" opacity="0.6">[ Photo menu ]</text>
  <text x="44" y="1130" fill="#6B2737" font-size="16" font-weight="700">Menu Végétarien Printemps</text>
  <text x="44" y="1150" fill="#888" font-size="12" font-family="sans-serif">4 personnes min.   |   120 €</text>
  <rect x="44" y="1170" width="130" height="36" rx="4" fill="#6B2737"/>
  <text x="109" y="1193" fill="#FAF7F2" font-size="13" font-family="sans-serif" text-anchor="middle">Voir le détail</text>
  <rect y="1540" width="390" height="60" fill="#2C2C2C"/>
  <text x="24" y="1564" fill="#C9A84C" font-size="14" font-weight="700">Vite &amp; Gourmand</text>
  <text x="24" y="1584" fill="#aaa" font-size="11" font-family="sans-serif">Mentions légales  |  CGV</text>
</svg>